<svg xmlns="http://www.w3.org/2000/svg" xmlns:xlink="http://www.w3.org/1999/xlink" width="979px" height="750px" viewBox="0.400159 0.274539 344.648 264.195" preserveAspectRatio="xMidYMid meet"  ><rect id="svgEditorBackground" x="0.3361336866649274" y="0.32617422938346863" width="344.77633572029424" height="264.0919494628906" style="fill:none; stroke: none;"/><defs id="svgEditorDefs"><polygon id="svgEditorShapeDefs" style="fill:khaki;stroke:black;vector-effect:non-scaling-stroke;stroke-width:1px;"/><pattern height="10" id="hatch-black-dash-120" patternTransform="rotate(120) scale(0.4)" patternUnits="userSpaceOnUse" viewBox="0 0 24 10" width="24" x="0" y="0"><line style="stroke:black;stroke-width:1px;stroke-dasharray:4,4;" x1="0" x2="24" y1="5" y2="5"/></pattern><pattern height="10" id="sun-gold-usr" patternUnits="userSpaceOnUse" viewBox="-20 -20 168 168" width="10" x="0" y="0"><path d="M72 16.677v-8.677c0-4.419-3.581-8-8-8s-8 3.581-8 8v8.677c2.603-0.436 5.273-0.677 8-0.677s5.397 0.24 8 0.677z" style="fill:gold;stroke:none;"/><path d="M18.745 109.255c3.125 3.124 8.189 3.124 11.314 0l6.139-6.139c-4.373-3.114-8.199-6.941-11.314-11.314l-6.139 6.139c-3.123 3.123-3.123 8.189 0 11.314z" style="fill:gold;stroke:none;"/><path d="M56 111.323v8.677c0 4.419 3.581 8 8 8s8-3.581 8-8v-8.677c-2.603 0.436-5.273 0.677-8 0.677s-5.397-0.24-8-0.677z" style="fill:gold;stroke:none;"/><path d="M36.197 24.884l-6.139-6.139c-3.125-3.124-8.189-3.124-11.314 0s-3.124 8.189 0 11.314l6.139 6.139c3.115-4.374 6.941-8.2 11.314-11.314z" style="fill:gold;stroke:none;"/><path d="M8 72h8.677c-0.437-2.603-0.677-5.273-0.677-8s0.239-5.397 0.677-8h-8.677c-4.419 0-8 3.581-8 8s3.581 8 8 8z" style="fill:gold;stroke:none;"/><path d="M120 56h-8.677c0.437 2.603 0.677 5.273 0.677 8s-0.239 5.397-0.677 8h8.677c4.419 0 8-3.581 8-8s-3.581-8-8-8z" style="fill:gold;stroke:none;"/><path d="M109.255 18.745c-3.124-3.124-8.189-3.124-11.314 0l-6.139 6.139c4.373 3.114 8.199 6.941 11.314 11.314l6.139-6.139c3.123-3.123 3.123-8.189 0-11.314z" style="fill:gold;stroke:none;"/><path d="M109.255 109.255c3.124-3.124 3.124-8.189 0-11.314l-6.139-6.139c-3.114 4.373-6.941 8.2-11.314 11.314l6.139 6.139c3.123 3.123 8.189 3.123 11.314 0z" style="fill:gold;stroke:none;"/><path d="M104 64c0 22.091-17.909 40-40 40s-40-17.909-40-40c0-22.091 17.909-40 40-40s40 17.909 40 40z" style="fill:gold;stroke:none;"/></pattern><pattern height="20" id="damier-p" patternContentUnits="userSpaceOnUse" patternUnits="userSpaceOnUse" preserveAspectRatio="xMinYMin meet" viewBox="0 0 20 20" width="20" x="0" y="0"><rect height="20" style="fill:#DFDBE5;stroke:none;" width="20" x="0" y="0"/><path d="M0 0h20L0 20z" fill-rule="evenodd" style="fill:#9C92AC;fill-opacity:0.4;"/></pattern><pattern height="10" id="hatch-black-45" patternTransform="rotate(45) scale(0.4)" patternUnits="userSpaceOnUse" viewBox="0 0 10 10" width="10" x="0" y="0"><line style="stroke:black;stroke-width:1px;" x1="0" x2="10" y1="5" y2="5"/></pattern><path id="svgEditorClosePathDefs" style="stroke:black;stroke-width:1px;fill:khaki;"/></defs><path d="M449.9389759707158,307.181998717337a61.77229,61.77229,0,0,1,87.92106481860208,-0.2044515663689026" style="fill:none;stroke:white;stroke-width:10px;stroke-linecap:round;stroke-opacity:1;" id="e1_circleArc" transform="matrix(3.43674 0 0 3.43674 -1523.34 -972.862)"/><path d="M463.86004078931796,321.4775471509681a43.188835,43.188835,0,0,1,59.920032048660005,0.12448361502879379" style="fill:none;stroke:white;stroke-width:10px;stroke-linecap:round;" id="e3_circleArc" transform="matrix(3.43674 0 0 3.43674 -1523.34 -972.862)"/><path d="M478.61004078931785,336.4775471509682a19.224802,19.224802,0,0,1,28.999999999999886,-0.5000000000000568" style="fill:none;stroke:white;stroke-width:10px;stroke-linecap:round;" id="e2_circleArc" transform="matrix(3.43674 0 0 3.43674 -1523.34 -972.862)"/><circle id="e4_circle" cx="493.1099548339844" cy="350.9775390625" style="fill:white;stroke:white;stroke-width:1px;" r="7.17157" transform="matrix(3.43674 0 0 3.43674 -1523.34 -972.862)"/><path d="M449.92171358493886,307.0818783997648a62.099405,62.099405,0,0,1,87.89489003029519,-0.07627537757389291" style="fill: none; stroke:white; stroke-width: 8.3px; stroke-linecap: round; stroke-opacity: 1;" id="e5_circleArc" transform="matrix(3.43674 0 0 3.43674 -1523.34 -972.862)"/><path d="M463.9965414574552,321.25897003676937a43.623959,43.623959,0,0,1,59.8746185605043,0.1282521514027053" style="fill: none; stroke:white; stroke-width: 8.3px; stroke-linecap: round; stroke-opacity: 1;" id="e4_circleArc" transform="matrix(3.43674 0 0 3.43674 -1523.34 -972.862)"/><path d="M478.5555676416593,336.4315788079037a19.249543,19.249543,0,0,1,28.99096168504144,-0.4853304355270325" style="fill: none; stroke:white; stroke-width: 8.3px; stroke-linecap: round; stroke-opacity: 1;" id="e6_circleArc" transform="matrix(3.43674 0 0 3.43674 -1523.34 -972.862)"/><circle id="e1_circle" cx="493.1474914550781" cy="350.9128112792969" style="fill:white;stroke:white;stroke-width:1px;" r="6.30383" transform="matrix(3.43674 0 0 3.43674 -1523.34 -972.862)"/></svg>